<svg xmlns="http://www.w3.org/2000/svg" version="1.1" xmlns:xlink="http://www.w3.org/1999/xlink" xmlns:svgjs="http://svgjs.dev/svgjs" width="1000" height="1000" viewBox="0 0 1000 1000"><rect width="1000" height="1000" fill="#050505"></rect><g transform="matrix(0.7,0,0,0.7,149.6926058583976,123.00552225771452)"><svg viewBox="0 0 229 247" data-background-color="#050505" preserveAspectRatio="xMidYMid meet" height="1078" width="1000" xmlns="http://www.w3.org/2000/svg" xmlns:xlink="http://www.w3.org/1999/xlink"><g id="tight-bounds" transform="matrix(1,0,0,1,0.10056179775278906,-0.09999470228538598)"><svg viewBox="0 0 228.7988764044944 247.2" height="247.2" width="228.7988764044944"><g><svg viewBox="0 0 228.7988764044944 247.2" height="247.2" width="228.7988764044944"><g><svg viewBox="0 0 228.7988764044944 247.2" height="247.2" width="228.7988764044944"><g id="textblocktransform"><svg viewBox="0 0 228.7988764044944 247.2" height="247.2" width="228.7988764044944" id="textblock"><g><svg viewBox="0 0 228.7988764044944 247.2" height="247.2" width="228.7988764044944"><g transform="matrix(1,0,0,1,0,0)"><svg width="228.7988764044944" viewBox="-0.5 -35.599998474121094 32.95000076293945 35.599998474121094" height="247.2" data-palette-color="#92007a"><path d="M16.9-35.6L16.9-35.6 29.1-4.2Q29.8-2.35 30.73-1.7 31.65-1.05 32.45-1L32.45-1 32.45 0Q31.25-0.1 29.63-0.13 28-0.15 26.35-0.15L26.35-0.15Q24.25-0.15 22.45-0.13 20.65-0.1 19.55 0L19.55 0 19.55-1Q22.1-1.1 22.78-1.88 23.45-2.65 22.45-5.2L22.45-5.2 13.45-29.5 14.25-30.4 5.95-8.7Q4.75-5.7 4.8-4.05 4.85-2.4 5.98-1.73 7.1-1.05 9.2-1L9.2-1 9.2 0Q7.7-0.1 6.18-0.13 4.65-0.15 3.3-0.15L3.3-0.15Q2.1-0.15 1.18-0.13 0.25-0.1-0.5 0L-0.5 0-0.5-1Q0.55-1.25 1.6-2.25 2.65-3.25 3.6-5.65L3.6-5.65 15.2-35.6Q15.6-35.6 16.05-35.6 16.5-35.6 16.9-35.6ZM7.75-14.4L22.15-14.4 22.15-13.4 7.25-13.4 7.75-14.4Z" opacity="1" transform="matrix(1,0,0,1,0,0)" fill="#92007a" class="wordmark-text-0" data-fill-palette-color="primary" id="text-0"></path></svg></g></svg></g></svg></g></svg></g><g></g></svg></g><defs></defs></svg><rect width="228.7988764044944" height="247.2" fill="none" stroke="none" visibility="hidden"></rect></g></svg></g></svg>